Coordinates
version=1
nRows=8
nColumns=46
inDegrees=yes

Units are S.I. units (second, meters, Newtons, ...)
Angles are in degrees.

endheader
time	pelvis_tilt	pelvis_list	pelvis_rotation	pelvis_tx	pelvis_ty	pelvis_tz	bb_angle	bb_tx	bb_ty	bb_tz	hip_flexion_r	hip_adduction_r	hip_rotation_r	knee_angle_r	knee_angle_r_beta	ankle_angle_r	subtalar_angle_r	mtp_angle_r	crank_angle_r	hip_flexion_l	hip_adduction_l	hip_rotation_l	knee_angle_l	knee_angle_l_beta	ankle_angle_l	subtalar_angle_l	mtp_angle_l	crank_angle_l	lumbar_extension	lumbar_bending	lumbar_rotation	arm_flex_r	arm_add_r	arm_rot_r	elbow_flex_r	pro_sup_r	wrist_flex_r	wrist_dev_r	arm_flex_l	arm_add_l	arm_rot_l	elbow_flex_l	pro_sup_l	wrist_flex_l	wrist_dev_l
      0.00500000	     -8.17073468	     -2.72087745	     -4.81580483	      0.18123371	      1.05139389	     -0.30376528	      0.00000000	      0.50000000	      0.00000000	      0.25000000	     78.74448916	      0.77902738	      1.70525595	     92.20727489	      1.60932054	     17.94675964	     -6.68129897	      0.00000000	      0.00000000	     43.01415495	    -11.69026365	     -1.10813996	     71.36285809	      1.24551684	     -5.16308563	     -9.90139379	      0.00000000	      0.00000000	    -57.45550466	     -2.88576001	      6.62319234	     89.56644116	     -5.70665158	     37.59742628	     20.28758000	     22.76820212	      0.00000000	      0.00000000	     88.84004186	     -2.36920645	     41.14143773	     23.17737602	     28.86746638	      0.00000000	      0.00000000
      0.01000000	     -8.38065589	     -2.56932669	     -4.79206595	      0.18119594	      1.05095602	     -0.30373056	      0.00000000	      0.50000000	      0.00000000	      0.25000000	     79.03812131	      0.72138176	      1.85690408	     92.27665882	      1.61053152	     17.92923610	     -6.63599693	      0.00000000	      0.00000000	     43.26177697	    -11.53905098	     -1.11608424	     71.37560357	      1.24573929	     -5.14107145	     -9.76924775	      0.00000000	      0.00000000	    -57.16350516	     -3.00571913	      6.37013581	     89.56263494	     -5.38107305	     37.07185139	     19.60541722	     23.30624615	      0.00000000	      0.00000000	     88.86675771	     -2.15705422	     40.73929777	     22.29630378	     29.35237159	      0.00000000	      0.00000000
      0.01500000	     -8.39527748	     -2.61072840	     -4.77527617	      0.18110981	      1.05093996	     -0.30378902	      0.00000000	      0.50000000	      0.00000000	      0.25000000	     79.04683914	      0.72093689	      1.81536074	     92.25571517	      1.61016598	     17.89206378	     -6.63436799	      0.00000000	      0.00000000	     43.31310766	    -11.57162586	     -1.07633975	     71.38887062	      1.24597084	     -5.17706545	     -9.72234963	      0.00000000	      0.00000000	    -57.15699701	     -2.97789229	      6.36242309	     89.56450353	     -5.32951981	     36.65188839	     19.53662990	     23.77479583	      0.00000000	      0.00000000	     88.88940965	     -2.01858332	     40.31913262	     22.03725461	     29.83122258	      0.00000000	      0.00000000
      0.02000000	     -8.25488458	     -2.71792054	     -4.85795361	      0.18118876	      1.05107074	     -0.30410462	      0.00000000	      0.50000000	      0.00000000	      0.25000000	     78.87424953	      0.78717592	      1.74184916	     92.28603574	      1.61069518	     17.99529215	     -6.58928107	      0.00000000	      0.00000000	     43.17947806	    -11.73341840	     -1.17838557	     71.45461122	      1.24711823	     -5.23753289	     -9.83275101	      0.00000000	      0.00000000	    -57.35351644	     -2.92387093	      6.57389449	     89.55698816	     -5.45899121	     36.00874519	     20.02357861	     24.35866484	      0.00000000	      0.00000000	     88.86268495	     -1.97067750	     39.68169877	     22.45274120	     30.34787700	      0.00000000	      0.00000000
      0.02500000	     -8.31616304	     -2.65444243	     -4.88195337	      0.18107474	      1.05123134	     -0.30391759	      0.00000000	      0.50000000	      0.00000000	      0.25000000	     79.00214134	      0.76703656	      1.78587679	     92.37754232	      1.61229227	     17.94141988	     -6.66877513	      0.00000000	      0.00000000	     43.20123482	    -11.67545759	     -1.18850277	     71.34597153	      1.24522211	     -5.32811993	     -9.81384581	      0.00000000	      0.00000000	    -57.25286393	     -2.91486931	      6.53306930	     89.56410031	     -5.30696089	     35.71457505	     19.64917351	     24.78681674	      0.00000000	      0.00000000	     88.83966879	     -1.84516295	     39.47181807	     22.00733741	     30.75652089	      0.00000000	      0.00000000
      0.03000000	     -8.38832864	     -2.70458421	     -4.85653881	      0.18098664	      1.05106666	     -0.30388724	      0.00000000	      0.50000000	      0.00000000	      0.25000000	     79.08661452	      0.76632131	      1.73226306	     92.39648146	      1.61262282	     17.95384480	     -6.67567668	      0.00000000	      0.00000000	     43.35204181	    -11.72437092	     -1.11581228	     71.41820815	      1.24648288	     -5.37694756	     -9.71272283	      0.00000000	      0.00000000	    -57.14399470	     -2.84077144	      6.51519038	     89.56222213	     -5.15196564	     35.58773786	     19.35384330	     25.24448829	      0.00000000	      0.00000000	     88.86801639	     -1.69369414	     39.30651805	     21.44738760	     31.25029333	      0.00000000	      0.00000000
      0.03500000	     -8.41735622	     -2.72281287	     -4.84621610	      0.18093059	      1.05102372	     -0.30387265	      0.00000000	      0.50000000	      0.00000000	      0.25000000	     79.12245843	      0.77393729	      1.71777600	     92.40727486	      1.61281120	     17.95167859	     -6.69691884	      0.00000000	      0.00000000	     43.40798429	    -11.74808453	     -1.09163725	     71.41754251	      1.24647126	     -5.41491925	     -9.65502268	      0.00000000	      0.00000000	    -57.08643838	     -2.82615475	      6.54270332	     89.56695335	     -5.70552725	     39.04170877	     19.54960629	     23.50740016	      0.00000000	      0.00000000	     88.92869146	     -2.02696359	     41.71748816	     21.43884428	     30.84683934	      0.00000000	      0.00000000
      0.04000000	     -8.43043153	     -2.68731378	     -4.83391616	      0.18088269	      1.05101670	     -0.30386940	      0.00000000	      0.50000000	      0.00000000	      0.25000000	     79.15124562	      0.75859267	      1.74960352	     92.42529825	      1.61312577	     17.95352957	     -6.71544301	      0.00000000	      0.00000000	     43.43553198	    -11.72005326	     -1.11426130	     71.40318848	      1.24622074	     -5.48641465	     -9.64303318	      0.00000000	      0.00000000	    -57.08464018	     -2.82061492	      6.44845813	     89.56559090	     -5.33525676	     37.48209168	     19.61086975	     23.02856048	      0.00000000	      0.00000000	     88.90528917	     -1.85857794	     40.58508189	     21.63644206	     29.49864360	      0.00000000	      0.00000000
